<svg width="25" height="18" viewBox="0 0 25 18" fill="none" xmlns="http://www.w3.org/2000/svg">
<path d="M14.766 5.83848C14.766 5.70835 14.8124 5.57524 14.9051 5.43912C14.9978 5.30301 15.1033 5.20954 15.2215 5.15869C15.8003 4.92683 16.396 4.75108 17.0085 4.63144C17.621 4.51178 18.2571 4.45195 18.9167 4.45195C19.2981 4.45195 19.6671 4.47438 20.0239 4.51924C20.3806 4.56412 20.7399 4.62544 21.1019 4.70322C21.2395 4.73462 21.3584 4.80941 21.4586 4.92757C21.5588 5.04573 21.609 5.18334 21.609 5.3404C21.609 5.60364 21.5263 5.7962 21.361 5.9181C21.1958 6.04 20.9815 6.06953 20.7183 6.00671C20.4386 5.94838 20.148 5.9065 19.8466 5.88109C19.5453 5.85565 19.2353 5.84294 18.9167 5.84294C18.3513 5.84294 17.7975 5.89716 17.2553 6.0056C16.7131 6.11404 16.1959 6.26099 15.7038 6.44645C15.4286 6.55266 15.2035 6.54668 15.0285 6.42852C14.8535 6.31035 14.766 6.11367 14.766 5.83848ZM14.766 12.2103C14.766 12.0801 14.8124 11.9451 14.9051 11.8053C14.9978 11.6655 15.1033 11.5701 15.2215 11.5192C15.7853 11.2874 16.381 11.1135 17.0085 10.9976C17.636 10.8817 18.272 10.8237 18.9167 10.8237C19.2981 10.8237 19.6671 10.8462 20.0239 10.891C20.3806 10.9359 20.7399 10.9972 21.1019 11.075C21.2395 11.1064 21.3584 11.1812 21.4586 11.2994C21.5588 11.4175 21.609 11.5551 21.609 11.7122C21.609 11.9754 21.5263 12.168 21.361 12.2899C21.1958 12.4118 20.9815 12.4413 20.7183 12.3785C20.4386 12.3202 20.148 12.2783 19.8466 12.2529C19.5453 12.2274 19.2353 12.2147 18.9167 12.2147C18.3587 12.2147 17.8106 12.2678 17.2721 12.374C16.7336 12.4802 16.2184 12.6298 15.7263 12.8228C15.4511 12.9364 15.2222 12.9334 15.0397 12.8138C14.8573 12.6941 14.766 12.4929 14.766 12.2103ZM14.766 9.02438C14.766 8.89424 14.8124 8.75924 14.9051 8.6194C14.9978 8.47956 15.1033 8.38421 15.2215 8.33336C15.8003 8.10153 16.396 7.92765 17.0085 7.81172C17.621 7.69579 18.2571 7.63783 18.9167 7.63783C19.2981 7.63783 19.6671 7.66026 20.0239 7.70514C20.3806 7.75002 20.7399 7.81135 21.1019 7.88913C21.2395 7.92053 21.3584 7.99531 21.4586 8.11347C21.5588 8.23164 21.609 8.36924 21.609 8.52627C21.609 8.78953 21.5263 8.98211 21.361 9.104C21.1958 9.2259 20.9815 9.25544 20.7183 9.19261C20.4386 9.13428 20.148 9.0924 19.8466 9.06696C19.5453 9.04155 19.2353 9.02884 18.9167 9.02884C18.3587 9.02884 17.8106 9.08493 17.2721 9.1971C16.7336 9.30928 16.2184 9.46184 15.7263 9.65479C15.4511 9.76848 15.2222 9.7625 15.0397 9.63685C14.8573 9.51122 14.766 9.30706 14.766 9.02438ZM6.08334 14.1891C7.04959 14.1891 7.98966 14.2987 8.90355 14.5178C9.81744 14.7369 10.7246 15.0806 11.625 15.5487V4.07949C10.8054 3.54553 9.9184 3.14505 8.96413 2.87806C8.00985 2.61107 7.04959 2.47757 6.08334 2.47757C5.38334 2.47757 4.72933 2.53253 4.12132 2.64245C3.51332 2.75239 2.88848 2.93225 2.24681 3.18203C2.15706 3.21196 2.09348 3.25497 2.05609 3.31107C2.0187 3.36716 2 3.42886 2 3.49616V14.5301C2 14.6348 2.03739 14.7115 2.11218 14.7601C2.18698 14.8087 2.26926 14.8143 2.35902 14.7769C2.91242 14.5885 3.4965 14.4434 4.11123 14.3417C4.72597 14.24 5.38334 14.1891 6.08334 14.1891ZM13.375 15.5487C14.2754 15.0806 15.1826 14.7369 16.0965 14.5178C17.0103 14.2987 17.9504 14.1891 18.9167 14.1891C19.6167 14.1891 20.274 14.24 20.8888 14.3417C21.5035 14.4434 22.0876 14.5885 22.641 14.7769C22.7307 14.8143 22.813 14.8087 22.8878 14.7601C22.9626 14.7115 23 14.6348 23 14.5301V3.49616C23 3.42886 22.9813 3.36903 22.9439 3.31667C22.9065 3.2643 22.843 3.21943 22.7532 3.18203C22.1115 2.93225 21.4867 2.75239 20.8787 2.64245C20.2707 2.53253 19.6167 2.47757 18.9167 2.47757C17.9504 2.47757 16.9902 2.61107 16.0359 2.87806C15.0816 3.14505 14.1946 3.54553 13.375 4.07949V15.5487ZM12.5 17.6262C12.2727 17.6262 12.0599 17.5978 11.8617 17.541C11.6635 17.4842 11.4762 17.4086 11.2997 17.3144C10.4965 16.8597 9.65626 16.5168 8.77901 16.2857C7.90177 16.0546 7.00321 15.9391 6.08334 15.9391C5.37138 15.9391 4.67214 16.018 3.98561 16.1758C3.29907 16.3335 2.63721 16.5658 2.00003 16.8724C1.58423 17.0638 1.18862 17.0335 0.813182 16.7815C0.437768 16.5295 0.250061 16.1724 0.250061 15.7102V3.04297C0.250061 2.79169 0.314743 2.55574 0.444107 2.33512C0.57349 2.1145 0.760089 1.95559 1.0039 1.85836C1.79364 1.47397 2.61665 1.18941 3.47295 1.00468C4.32924 0.819961 5.19937 0.7276 6.08334 0.7276C7.2186 0.7276 8.32768 0.882786 9.41058 1.19316C10.4935 1.50351 11.5233 1.96157 12.5 2.56735C13.4767 1.96157 14.5065 1.50351 15.5894 1.19316C16.6723 0.882786 17.7814 0.7276 18.9167 0.7276C19.8006 0.7276 20.6708 0.819961 21.5271 1.00468C22.3834 1.18941 23.2064 1.47397 23.9961 1.85836C24.2399 1.95559 24.4265 2.1145 24.5559 2.33512C24.6853 2.55574 24.75 2.79169 24.75 3.04297V15.7102C24.75 16.1724 24.5548 16.5257 24.1644 16.7703C23.774 17.0148 23.3634 17.0414 22.9327 16.8499C22.3029 16.5508 21.6504 16.3242 20.9751 16.1702C20.2998 16.0161 19.6137 15.9391 18.9167 15.9391C17.9968 15.9391 17.0982 16.0546 16.221 16.2857C15.3437 16.5168 14.5035 16.8597 13.7003 17.3144C13.5238 17.4086 13.3365 17.4842 13.1383 17.541C12.9401 17.5978 12.7273 17.6262 12.5 17.6262Z" fill="white"/>
</svg>
