<svg width="106" height="106" viewBox="0 0 106 106" fill="none" xmlns="http://www.w3.org/2000/svg">
<path d="M93.6334 3.8477C93.6334 2.61421 93.0069 1.49065 91.9577 0.842227C90.9082 0.193598 89.6232 0.13563 88.5197 0.687575L80.3832 4.75574V50.9223C80.3832 51.3908 80.1971 51.8401 79.8658 52.1714C79.5345 52.5027 79.0851 52.6889 78.6166 52.6889C78.1481 52.6889 77.6987 52.5027 77.3674 52.1714C77.0361 51.8401 76.85 51.3908 76.85 50.9223V6.52234L45.9334 21.9805V60.4304L88.5199 81.7235C89.6236 82.2753 90.9085 82.2173 91.9579 81.5689C93.0071 80.9205 93.6336 79.7969 93.6336 78.5634L93.6334 3.8477ZM9.7166 32.3723H8.8332C3.96258 32.3723 0 36.3348 0 41.2055C0 46.0761 3.96258 50.0389 8.8334 50.0389H9.7168L9.7166 32.3723ZM34.9875 103.195C35.4464 104.686 36.8035 105.689 38.3645 105.689H46.7075C47.8406 105.689 48.8764 105.166 49.5496 104.255C50.2227 103.343 50.4177 102.199 50.0844 101.117L38.4451 63.2889H22.7086L34.9875 103.195ZM20.3319 59.7555H42.4V22.6555H20.3168C16.4201 22.6555 13.25 25.8255 13.25 29.7223V52.6889C13.25 56.5846 16.4184 59.7538 20.3137 59.7555H20.3319ZM97.1666 27.2221V55.1888C102.173 54.3449 106 49.9817 106 44.7389V37.6723C106 32.4294 102.173 28.066 97.1666 27.2221Z" fill="#EF4444"/>
</svg>
