<svg width="106" height="106" viewBox="0 0 106 106" fill="none" xmlns="http://www.w3.org/2000/svg">
<path d="M102.895 0H90.2656C88.5491 0 87.1602 1.38897 87.1602 3.10547V6.21094H61.7444C60.4581 2.60404 57.0433 0 53 0C48.9567 0 45.5419 2.60404 44.2556 6.21094H18.8398V3.10547C18.8398 1.38897 17.4509 0 15.7344 0H3.10547C1.38897 0 0 1.38897 0 3.10547V15.5273C0 17.2438 1.38897 18.6328 3.10547 18.6328H15.7344C17.4509 18.6328 18.8398 17.2438 18.8398 15.5273V12.3805H31.5938C20.8164 19.1133 13.71 30.9387 12.8606 44.1836C9.13443 45.4032 6.41797 48.8718 6.41797 53C6.41797 58.1373 10.5971 62.3164 15.7344 62.3164C20.8716 62.3164 25.0508 58.1373 25.0508 53C25.0508 49.0374 22.5538 45.6684 19.0593 44.3239C20.1189 29.5574 30.4224 17.1115 44.7546 13.5605C46.3046 16.5577 49.3991 18.6328 53 18.6328C56.6009 18.6328 59.6954 16.5577 61.2454 13.5605C75.5776 17.1113 85.8811 29.5572 86.9407 44.3237C83.4462 45.6684 80.9492 49.0374 80.9492 53C80.9492 58.1373 85.1283 62.3164 90.2656 62.3164C95.4029 62.3164 99.582 58.1373 99.582 53C99.582 48.8718 96.8656 45.4032 93.1394 44.1836C92.29 30.9387 85.1836 19.1547 74.4062 12.4219H87.1602V15.5273C87.1602 17.2438 88.5491 18.6328 90.2656 18.6328H102.895C104.611 18.6328 106 17.2438 106 15.5273V3.10547C106 1.38897 104.611 0 102.895 0ZM74.1275 102.148C72.5032 97.1776 67.8234 93.3711 62.3164 93.3711H43.6836C38.1766 93.3711 33.4968 97.1776 31.8725 102.148C31.2462 104.065 32.8766 106 34.893 106H71.1069C73.1232 106 74.7538 104.065 74.1275 102.148Z" fill="#EF4444"/>
<path d="M80.4275 63.6993L56.1055 27.2161V56.6774C59.7124 57.9637 62.3164 61.3785 62.3164 65.4218C62.3164 70.5591 58.1373 74.7382 53 74.7382C47.8628 74.7382 43.6836 70.5591 43.6836 65.4218C43.6836 61.3785 46.2877 57.9637 49.8946 56.6774V27.2161L25.5725 63.6993C24.7506 64.9305 24.9144 66.5713 25.9607 67.6176C31.6617 73.3186 35.3059 80.663 36.7123 88.5412C38.8695 87.6661 41.2158 87.1601 43.6836 87.1601H62.3164C64.7842 87.1601 67.1305 87.6659 69.2878 88.5408C70.6942 80.6622 74.3383 73.3186 80.0393 67.6176C81.0857 66.5713 81.2494 64.9305 80.4275 63.6993Z" fill="#EF4444"/>
<path d="M53 62.3164C51.2866 62.3164 49.8945 63.7085 49.8945 65.4219C49.8945 67.1353 51.2866 68.5273 53 68.5273C54.7134 68.5273 56.1055 67.1353 56.1055 65.4219C56.1055 63.7085 54.7134 62.3164 53 62.3164Z" fill="#EF4444"/>
</svg>
