<svg width="106" height="106" viewBox="0 0 106 106" fill="none" xmlns="http://www.w3.org/2000/svg">
<path d="M106 25.0508V9.52344C106 4.38637 101.821 0.207031 96.6836 0.207031H9.31641C4.17934 0.207031 0 4.38637 0 9.52344V25.0508H106ZM71.6328 12.6289H90.2656C91.9807 12.6289 93.3711 14.0193 93.3711 15.7344C93.3711 17.4494 91.9807 18.8398 90.2656 18.8398H71.6328C69.9178 18.8398 68.5273 17.4494 68.5273 15.7344C68.5273 14.0193 69.9178 12.6289 71.6328 12.6289ZM40.5781 12.6289C42.2932 12.6289 43.6836 14.0193 43.6836 15.7344C43.6836 17.4494 42.2932 18.8398 40.5781 18.8398C38.8631 18.8398 37.4727 17.4494 37.4727 15.7344C37.4727 14.0193 38.8631 12.6289 40.5781 12.6289ZM28.1562 12.6289C29.8713 12.6289 31.2617 14.0193 31.2617 15.7344C31.2617 17.4494 29.8713 18.8398 28.1562 18.8398C26.4412 18.8398 25.0508 17.4494 25.0508 15.7344C25.0508 14.0193 26.4412 12.6289 28.1562 12.6289ZM15.7344 12.6289C17.4494 12.6289 18.8398 14.0193 18.8398 15.7344C18.8398 17.4494 17.4494 18.8398 15.7344 18.8398C14.0193 18.8398 12.6289 17.4494 12.6289 15.7344C12.6289 14.0193 14.0193 12.6289 15.7344 12.6289ZM0 31.2617V96.4766C0 101.614 4.17934 105.793 9.31641 105.793H96.6836C101.821 105.793 106 101.614 106 96.4766V31.2617H0ZM36.3071 75.4188C37.6466 76.4902 37.8635 78.4443 36.7921 79.7836C35.721 81.1227 33.7664 81.3401 32.4273 80.2685L16.9 67.8466C15.3474 66.6051 15.3464 64.2393 16.9 62.9967L32.4273 50.5748C33.766 49.5034 35.7206 49.7204 36.7921 51.0597C37.8635 52.399 37.6466 54.3534 36.3071 55.4245L23.8111 65.4219L36.3071 75.4188ZM65.1707 44.9069L46.5379 88.3835C45.8624 89.9596 44.0372 90.6905 42.4602 90.0145C40.8839 89.339 40.1535 87.5131 40.8293 85.9368L59.4621 42.4602C60.1378 40.8839 61.9634 40.1537 63.5398 40.8293C65.1161 41.5048 65.8465 43.3304 65.1707 44.9069ZM89.1 67.8468L73.5727 80.2687C72.2357 81.3386 70.2809 81.125 69.2079 79.7838C68.1365 78.4446 68.3534 76.4902 69.6929 75.419L82.1889 65.4219L69.6929 55.425C68.3534 54.3536 68.1365 52.3994 69.2079 51.0601C70.279 49.7208 72.2334 49.5037 73.5727 50.5752L89.1 62.9971C90.6526 64.2387 90.6536 66.6042 89.1 67.8468Z" fill="white"/>
</svg>
